<svg id="Layer_1" enable-background="new 0 0 512 512" height="512" viewBox="0 0 512 512" width="512" xmlns="http://www.w3.org/2000/svg"><circle cx="256" cy="256" fill="#2494ff" r="248"/><path d="m296.111 152.36v-11.19c0-13.615-11.069-24.692-24.675-24.692h-30.872c-13.614 0-24.691 11.077-24.691 24.692v11.19h-92.643v13.502h23.428l16.28 197.133c.733 8.906 4.745 17.134 11.296 23.168 6.552 6.035 15.084 9.358 24.024 9.358h115.484c8.94 0 17.472-3.324 24.024-9.358 6.551-6.034 10.562-14.262 11.296-23.166l16.28-197.134h23.428v-13.503zm-75.219 182.827h-13.502v-122.508h13.502zm41.859 0h-13.502v-122.508h13.502zm19.858-182.827h-53.234v-11.19c0-6.17 5.019-11.19 11.189-11.19h30.872c6.161 0 11.173 5.02 11.173 11.19zm22.002 182.827h-13.502v-122.508h13.502z" fill="#fff"/></svg>