<svg id="Layer_4" height="512" viewBox="0 0 24 24" width="512" xmlns="http://www.w3.org/2000/svg" xmlns:xlink="http://www.w3.org/1999/xlink" data-name="Layer 4"><linearGradient id="New_Gradient_Swatch_2" gradientUnits="userSpaceOnUse" x2="24" y1="12" y2="12"><stop offset="0" stop-color="#87f1fc"/><stop offset=".2557" stop-color="#7fd4fb"/><stop offset=".5295" stop-color="#78bcfb"/><stop offset=".7844" stop-color="#74aefa"/><stop offset="1" stop-color="#73a9fa"/></linearGradient><path d="m12.0029 16.5005-3.7959-3.8775h1.793a.5.5 0 0 0 .5-.5v-6.623l2.9961-.001c.001.0005.0039.003.0039.01v6.614a.5.5 0 0 0 .5.5l1.79.0181-1.9558 1.9932c-.0111.01-.021.0206-.0312.0318zm5.5371-1h-3.1577l-1.6723 1.7012a.9941.9941 0 0 1 -1.42 0l-1.6723-1.7017h-3.1577a.4607.4607 0 0 0 -.46.46v2.08a.4607.4607 0 0 0 .46.46h11.08a.4607.4607 0 0 0 .46-.46v-2.08a.4607.4607 0 0 0 -.46-.46zm6.46-3.5005a12 12 0 1 1 -12-12 12 12 0 0 1 12 12zm-5 3.96a1.4615 1.4615 0 0 0 -1.46-1.46h-2.1749l1.1383-1.1582a1.0125 1.0125 0 0 0 .21-1.1035.999.999 0 0 0 -.9209-.6153h-1.2925v-6.1142a1.0057 1.0057 0 0 0 -1-1.0088h-3a1.0057 1.0057 0 0 0 -1 1.0088v6.1142h-1.293a.999.999 0 0 0 -.9209.6153 1.0127 1.0127 0 0 0 .211 1.104l1.1378 1.1577h-2.1749a1.4615 1.4615 0 0 0 -1.46 1.46v2.08a1.4615 1.4615 0 0 0 1.46 1.46h11.08a1.4615 1.4615 0 0 0 1.46-1.46z" fill="url(#New_Gradient_Swatch_2)"/></svg>