<svg id="Layer_1" enable-background="new 0 0 50 50" height="50" viewBox="0 0 50 50" width="50" xmlns="http://www.w3.org/2000/svg"><circle cx="25" cy="25" fill="#f27490" r="25"/><path d="m22.541 16.129c-.714 0-1.414.064-2.094.182l4.276-5.458-2.361-1.853-5.592 7.139-1.851 2.363 2.359 1.854h.001l7.13 5.6 1.853-2.364-5.457-4.283c.564-.106 1.141-.175 1.736-.175 5.262 0 9.54 4.285 9.54 9.552 0 4.431-3.028 8.151-7.12 9.229v3.085c5.762-1.134 10.12-6.223 10.12-12.314 0-6.925-5.625-12.557-12.54-12.557z" fill="#fff"/></svg>