<svg id="Layer_4" height="512" viewBox="0 0 24 24" width="512" xmlns="http://www.w3.org/2000/svg" xmlns:xlink="http://www.w3.org/1999/xlink" data-name="Layer 4"><linearGradient id="New_Gradient_Swatch_1" gradientUnits="userSpaceOnUse" x2="24" y1="12" y2="12"><stop offset="0" stop-color="#87f1fc"/><stop offset=".2557" stop-color="#7fd4fb"/><stop offset=".5295" stop-color="#78bcfb"/><stop offset=".7844" stop-color="#74aefa"/><stop offset="1" stop-color="#73a9fa"/></linearGradient><path d="m12 5.5a6.5 6.5 0 1 0 6.5 6.5 6.5075 6.5075 0 0 0 -6.5-6.5zm1.8535 6.3535a.5.5 0 0 1 -.707 0l-.6465-.6465v4.793a.5.5 0 0 1 -1 0v-4.793l-.6465.6465a.5.5 0 0 1 -.707-.707l1.4994-1.4994a.5016.5016 0 0 1 .7082 0l1.4994 1.4994a.5.5 0 0 1 0 .707zm2.9307-1.3955a.4994.4994 0 0 1 -.6582-.258 4.5024 4.5024 0 0 0 -8.252 0 .5.5 0 0 1 -.916-.4 5.5019 5.5019 0 0 1 10.084 0 .5.5 0 0 1 -.2578.658zm-4.7842-10.458a12 12 0 1 0 12 12 12 12 0 0 0 -12-12zm0 19.5a7.5 7.5 0 1 1 7.5-7.5 7.5083 7.5083 0 0 1 -7.5 7.5z" fill="url(#New_Gradient_Swatch_1)"/></svg>